<svg width="24" height="23" viewBox="0 0 24 23" fill="none" xmlns="http://www.w3.org/2000/svg">
<path d="M10.8002 11.4666C10.8002 11.7849 10.9266 12.0901 11.1517 12.3151C11.3767 12.5402 11.6819 12.6666 12.0002 12.6666C12.3185 12.6666 12.6237 12.5402 12.8487 12.3151C13.0738 12.0901 13.2002 11.7849 13.2002 11.4666C13.2002 11.1483 13.0738 10.8431 12.8487 10.6181C12.6237 10.393 12.3185 10.2666 12.0002 10.2666C11.6819 10.2666 11.3767 10.393 11.1517 10.6181C10.9266 10.8431 10.8002 11.1483 10.8002 11.4666V11.4666ZM15.8002 11.4666C15.8002 11.7849 15.9266 12.0901 16.1517 12.3151C16.3767 12.5402 16.6819 12.6666 17.0002 12.6666C17.3185 12.6666 17.6237 12.5402 17.8487 12.3151C18.0738 12.0901 18.2002 11.7849 18.2002 11.4666C18.2002 11.1483 18.0738 10.8431 17.8487 10.6181C17.6237 10.393 17.3185 10.2666 17.0002 10.2666C16.6819 10.2666 16.3767 10.393 16.1517 10.6181C15.9266 10.8431 15.8002 11.1483 15.8002 11.4666ZM5.80019 11.4666C5.80019 11.7849 5.92662 12.0901 6.15167 12.3151C6.37671 12.5402 6.68193 12.6666 7.00019 12.6666C7.31845 12.6666 7.62368 12.5402 7.84872 12.3151C8.07377 12.0901 8.20019 11.7849 8.20019 11.4666C8.20019 11.1483 8.07377 10.8431 7.84872 10.6181C7.62368 10.393 7.31845 10.2666 7.00019 10.2666C6.68193 10.2666 6.37671 10.393 6.15167 10.6181C5.92662 10.8431 5.80019 11.1483 5.80019 11.4666V11.4666ZM22.3302 7.1266C21.7652 5.7841 20.9552 4.5791 19.9227 3.5441C18.8974 2.51509 17.6803 1.69716 16.3402 1.1366C14.9652 0.559102 13.5052 0.266602 12.0002 0.266602H11.9502C10.4352 0.274102 8.96769 0.574102 7.58769 1.1641C6.25909 1.7304 5.05335 2.54979 4.03769 3.5766C3.01519 4.6091 2.21269 5.8091 1.65769 7.1466C1.08269 8.5316 0.792694 10.0041 0.800194 11.5191C0.808678 13.2553 1.21942 14.9659 2.00019 16.5166V20.3166C2.00019 20.6216 2.12135 20.9141 2.33702 21.1298C2.55269 21.3454 2.8452 21.4666 3.15019 21.4666H6.95269C8.50343 22.2474 10.214 22.6581 11.9502 22.6666H12.0027C13.5002 22.6666 14.9527 22.3766 16.3202 21.8091C17.6535 21.2552 18.8661 20.4468 19.8902 19.4291C20.9227 18.4066 21.7352 17.2116 22.3027 15.8791C22.8927 14.4991 23.1927 13.0316 23.2002 11.5166C23.2077 9.9941 22.9127 8.5166 22.3302 7.1266V7.1266ZM18.5527 18.0766C16.8002 19.8116 14.4752 20.7666 12.0002 20.7666H11.9577C10.4502 20.7591 8.95269 20.3841 7.63019 19.6791L7.42019 19.5666H3.90019V16.0466L3.78769 15.8366C3.08269 14.5141 2.70769 13.0166 2.70019 11.5091C2.69019 9.0166 3.64269 6.6766 5.39019 4.9141C7.13519 3.1516 9.46769 2.1766 11.9602 2.1666H12.0027C13.2527 2.1666 14.4652 2.4091 15.6077 2.8891C16.7227 3.3566 17.7227 4.0291 18.5827 4.8891C19.4402 5.7466 20.1152 6.7491 20.5827 7.8641C21.0677 9.0191 21.3102 10.2441 21.3052 11.5091C21.2902 13.9991 20.3127 16.3316 18.5527 18.0766V18.0766Z" fill="white"/>
</svg>
