<?xml version="1.0" encoding="utf-8"?>
<!-- Generator: Adobe Illustrator 26.0.2, SVG Export Plug-In . SVG Version: 6.00 Build 0)  -->
<svg version="1.1" id="Layer_1" xmlns="http://www.w3.org/2000/svg" xmlns:xlink="http://www.w3.org/1999/xlink" x="0px" y="0px"
	 viewBox="0 0 50 50" style="enable-background:new 0 0 50 50;" xml:space="preserve">
<style type="text/css">
	.st0{fill:#FFFFFF;}
</style>
<path class="st0" d="M23.6,48.8c-0.5,0-0.9-0.1-1.3-0.4c-0.7-0.4-1.1-1.1-1.4-2.1c-0.2-0.7-0.2-1.3-0.2-1.3c0-0.2,0.1-0.4,0.3-0.6
	c0.2-0.1,0.4-0.2,0.6-0.1c0,0,1.1,0.4,2.2,0.7c0.7,0.2,1.2,0.3,1.6,0.4c-0.5-0.2-1-0.3-1.6-0.5c-1.1-0.3-2.2-0.7-3-1.1
	c-0.5-0.3-0.9-0.5-1.2-0.8c-0.5-0.5-0.6-1-0.5-1.3c0,0,0,0,0,0c0-0.3,0.2-0.5,0.4-0.6c0.6-0.4,1.4-0.1,4,0.7
	c0.9,0.3,1.9,0.6,2.7,0.8c0.2,0,0.3,0.1,0.5,0.1c-0.1,0-0.2-0.1-0.3-0.1c-0.7-0.3-1.6-0.5-2.5-0.8c-1.1-0.3-2.3-0.7-3.1-1.1
	c-0.9-0.4-1.8-0.9-1.8-1.8c0-0.3,0.2-0.6,0.4-0.8c0.4-0.3,1.1-0.3,2.3,0c0.8,0.2,1.9,0.5,2.9,0.9c0.9,0.3,1.9,0.6,2.6,0.8
	c0.4,0.1,0.6,0.1,0.8,0.2c-0.1-0.1-0.3-0.1-0.5-0.2c-0.6-0.2-1.4-0.5-2.2-0.7c-1.7-0.5-3.6-1-4.9-1.9c-0.8-0.5-1.3-1.1-1.5-1.9
	c-0.2-0.6-0.3-1.3-0.3-2c-0.1-1.3-0.2-2.8-1.4-5c-1.6-2-2.7-4.1-3.3-6.2c-0.5-2-0.5-4,0-5.8c0.5-1.7,1.4-3.2,2.6-4.5
	c1.3-1.3,2.9-2.3,4.7-2.9c0,0,0,0,0,0C22,8.4,23,8.2,24,8.1c1.2-0.1,2.4,0,3.5,0.3c2.9,0.6,5.3,2.2,7,4.6c0,0,0,0,0,0
	c1,1.5,1.7,2.9,2,4.4c0.3,1.4,0.3,2.8-0.1,4.1c-0.6,2.3-2,4.6-4.3,7c0,0-0.5,0.5-1,1.5c-0.5,0.9-1.2,2.5-1.7,4.9
	c0,0.1-0.3,1.2-1.1,1.8c-0.8,0.7-2.1,0.8-3.3,0.3c-0.1,0-0.4-0.2-0.7-0.4c-0.5-0.4-0.8-1-0.8-1.7c0,0,0,0,0,0c0-0.1-0.1-5.1-0.1-7.1
	c0-0.5-0.8-1.2-1.5-1.7c-0.4-0.3-0.8-0.7-1.1-1c-0.3-0.4-0.5-0.9-0.5-1.4c0-0.5,0.2-0.9,0.5-1.2c0,0,0,0,0,0
	c0.6-0.5,1.1-0.5,1.4-0.3c0.3,0.1,0.6,0.4,0.8,0.6c0.1,0.1,0.1,0.1,0.2,0.2c0-0.1,0.1-0.3,0.1-0.4c0.1-0.4,0.2-0.8,0.5-1.1
	c0.3-0.5,0.9-0.7,1.5-0.7c0.6,0.1,1,0.3,1.3,0.8c0.2,0.3,0.3,0.7,0.3,1c0,0,0,0.1,0,0.1c0.1-0.1,0.2-0.2,0.3-0.3
	c0.2-0.2,0.4-0.5,0.7-0.6c0.5-0.4,1-0.3,1.2-0.2c0,0,0,0,0,0c0.5,0.2,0.9,0.7,1,1.2c0.2,1.4-1,3.1-1.5,3.5c-1.1,1.1-2.8,1.4-2.8,1.5
	c-0.4,0.1-0.7-0.2-0.8-0.5c-0.1-0.4,0.2-0.7,0.5-0.8c0,0,1.3-0.3,2.1-1.1c0,0,0,0,0,0c0.5-0.4,1.2-1.7,1.1-2.3c0-0.1,0-0.1-0.1-0.2
	c-0.1,0.1-0.3,0.3-0.5,0.4c-0.4,0.4-0.8,0.9-1.5,0.9c0,0-0.1,0-0.1,0c-0.2,0-0.6-0.2-0.9-0.7c-0.1-0.2-0.1-0.5-0.2-0.7
	c-0.1-0.7-0.2-0.7-0.3-0.7c-0.2,0-0.2,0-0.2,0.1c-0.1,0.1-0.2,0.4-0.2,0.7c-0.1,0.2-0.1,0.5-0.2,0.7c-0.2,0.4-0.4,0.6-0.8,0.7
	c-0.2,0.1-0.6,0.1-1-0.1c-0.2-0.1-0.4-0.3-0.5-0.5c-0.1-0.1-0.2-0.2-0.3-0.3c0,0,0,0,0,0c-0.1,0.1-0.1,0.5,0.1,0.7
	c0.2,0.3,0.6,0.5,1,0.8c0.9,0.7,2,1.6,2,2.8c0,2,0.1,6.9,0.1,7.1c0,0.3,0.1,0.5,0.3,0.7c0.1,0.1,0.3,0.2,0.3,0.2c0,0,0,0,0.1,0
	c0.8,0.3,1.5,0.3,2-0.1c0,0,0,0,0,0c0.4-0.3,0.5-0.8,0.6-0.9c0,0,0,0,0,0c1-5,2.9-7,3-7.1c0,0,0,0,0,0c4.7-4.8,5.5-9.1,2.3-13.8
	C30.1,9.1,24.5,9,21.6,10c-3.3,1.2-5.7,3.6-6.5,6.5c-0.9,3.4,0.1,7.2,3.1,10.9c0,0,0,0.1,0.1,0.1c1.4,2.5,1.5,4.3,1.5,5.7
	c0.1,1.4,0.1,2.1,1.3,2.8c1.1,0.8,2.9,1.3,4.5,1.7c2.1,0.6,3.6,1,4,1.9c0.2,0.3,0.2,0.7,0,1.1c-0.1,0.3-0.4,0.6-1.1,0.7
	c-0.3,0-0.7,0-1.3-0.1c-0.9-0.2-2-0.6-3.1-0.9c-0.9-0.3-1.8-0.6-2.6-0.8c-0.2,0-0.3-0.1-0.5-0.1c0.1,0.1,0.3,0.1,0.5,0.2
	c0.8,0.3,1.8,0.6,2.7,0.9c1.1,0.4,2.2,0.7,3,1c0.5,0.2,0.8,0.4,1.1,0.6c0.6,0.5,0.5,1,0.5,1.2c-0.1,0.3-0.3,0.5-0.5,0.7
	c-0.9,0.5-2.6,0-5.3-0.9c-0.7-0.2-1.3-0.4-1.8-0.6c0.1,0,0.1,0.1,0.2,0.1c0.8,0.4,1.8,0.7,2.8,1c0.8,0.3,1.6,0.5,2.2,0.8
	c0.4,0.2,0.6,0.3,0.8,0.5c0.4,0.4,0.5,0.8,0.4,1c0,0.3-0.2,0.6-0.5,0.8c-0.2,0.1-0.5,0.2-1,0.2c-0.6,0-1.4-0.1-2.6-0.5
	c-0.5-0.1-0.9-0.3-1.3-0.4c0.1,0.5,0.4,1,0.8,1.2c0.5,0.3,1.2,0.2,2.1-0.3c0.3-0.2,0.8,0,0.9,0.3c0.2,0.3,0,0.8-0.3,0.9
	C24.9,48.6,24.2,48.8,23.6,48.8z"/>
<g>
	<path class="st0" d="M26.1,2.4c0,0.8-0.4,3.7-0.9,3.7c-0.5,0-0.9-2.9-0.9-3.7s0.4-1.4,0.9-1.4C25.7,0.9,26.1,1.6,26.1,2.4z"/>
	<path class="st0" d="M37.9,6.8c-0.6,0.5-2.5,2.7-2.2,3.1c0.3,0.4,2.8-1.1,3.4-1.7c0.6-0.5,0.8-1.3,0.5-1.7
		C39.3,6.1,38.5,6.2,37.9,6.8z"/>
	<path class="st0" d="M42.5,19.5c-0.8,0.1-3.7,0-3.7-0.5c-0.1-0.5,2.7-1.3,3.5-1.4c0.8-0.1,1.5,0.2,1.5,0.8
		C43.9,18.9,43.3,19.4,42.5,19.5z"/>
	<path class="st0" d="M13.6,5.8c0.6,0.5,2.6,2.6,2.3,3c-0.3,0.4-2.8-1-3.5-1.5c-0.6-0.5-0.9-1.2-0.6-1.6C12.2,5.3,12.9,5.3,13.6,5.8
		z"/>
	<path class="st0" d="M7.6,17.5c0.8,0.1,3.7,0,3.7-0.5c0.1-0.5-2.7-1.3-3.5-1.4c-0.8-0.1-1.5,0.2-1.5,0.8
		C6.2,16.9,6.8,17.4,7.6,17.5z"/>
</g>
</svg>
