<?xml version="1.0" encoding="utf-8"?>
<!-- Generator: Adobe Illustrator 26.0.2, SVG Export Plug-In . SVG Version: 6.00 Build 0)  -->
<svg version="1.1" id="Layer_1" xmlns="http://www.w3.org/2000/svg" xmlns:xlink="http://www.w3.org/1999/xlink" x="0px" y="0px"
	 viewBox="0 0 48 48" style="enable-background:new 0 0 48 48;" xml:space="preserve">
<style type="text/css">
	.st0{fill:#FFFFFF;}
</style>
<path class="st0" d="M42.6,40.1L30.5,27.9c1.9-2.4,2.9-5.4,2.9-8.6c0-3.8-1.5-7.3-4.1-9.9c-2.7-2.7-6.2-4.1-9.9-4.1S12,6.7,9.4,9.4
	c-2.7,2.7-4.1,6.2-4.1,9.9c0,3.8,1.5,7.3,4.1,9.9c2.7,2.7,6.2,4.1,9.9,4.1c3.1,0,6.1-1,8.6-2.9L40,42.6c0,0,0.1,0.1,0.1,0.1
	c0,0,0.1,0,0.1,0s0.1,0,0.1,0c0,0,0.1,0,0.1-0.1l2-2c0,0,0.1-0.1,0.1-0.1c0,0,0-0.1,0-0.1c0-0.1,0-0.1,0-0.1
	C42.7,40.1,42.7,40.1,42.6,40.1z M26.7,26.7c-2,2-4.6,3.1-7.4,3.1s-5.4-1.1-7.4-3.1c-2-2-3.1-4.6-3.1-7.4s1.1-5.4,3.1-7.4
	c2-2,4.6-3.1,7.4-3.1s5.4,1.1,7.4,3.1s3.1,4.6,3.1,7.4S28.7,24.8,26.7,26.7z"/>
<path class="st0" d="M24.7,22.5c-0.5-0.5-1-0.8-1.6-1.1c0.8-0.7,1.3-1.7,1.3-2.8c0-2-1.7-3.6-3.7-3.6c-2,0-3.6,1.6-3.6,3.6
	c0,1.1,0.5,2.1,1.3,2.8c-0.6,0.3-1.1,0.6-1.6,1.1c-1,1-1.5,2.3-1.6,3.7c0,0,0,0,0,0.1c0,0,0,0,0,0c0,0,0,0,0,0c0,0,0,0,0.1,0h1
	c0.1,0,0.1-0.1,0.1-0.1c0-1,0.5-2,1.2-2.8c0.4-0.4,0.8-0.7,1.3-0.9c0.5-0.2,1-0.3,1.6-0.3c1.1,0,2.1,0.4,2.9,1.2
	c0.7,0.7,1.2,1.7,1.2,2.8c0,0.1,0.1,0.1,0.1,0.1h1c0,0,0,0,0.1,0c0,0,0,0,0,0c0,0,0,0,0,0c0,0,0,0,0-0.1
	C26.3,24.8,25.7,23.5,24.7,22.5z M20.9,20.9c-0.6,0-1.2-0.2-1.6-0.7c-0.2-0.2-0.4-0.5-0.5-0.8c-0.1-0.3-0.2-0.6-0.2-0.9
	c0-0.6,0.2-1.2,0.7-1.6c0.4-0.4,1-0.7,1.6-0.7c0.6,0,1.2,0.2,1.6,0.7c0.4,0.4,0.7,1,0.7,1.6c0,0.6-0.2,1.2-0.7,1.6
	c-0.2,0.2-0.5,0.4-0.7,0.5C21.5,20.8,21.2,20.9,20.9,20.9z M16.4,19c0-0.2,0-0.3,0-0.5c0-0.3,0-0.6,0.1-0.8c0-0.1,0-0.1-0.1-0.2
	c-0.2-0.1-0.5-0.3-0.7-0.5c-0.2-0.2-0.4-0.5-0.5-0.8C15,16,15,15.7,15,15.4c0-0.6,0.2-1.1,0.7-1.5c0.4-0.5,1-0.7,1.7-0.7
	c0.6,0,1.1,0.2,1.6,0.6c0.1,0.1,0.3,0.3,0.4,0.4c0,0.1,0.1,0.1,0.2,0.1c0.3-0.1,0.7-0.2,1-0.2c0.1,0,0.2-0.1,0.1-0.2
	c-0.6-1.2-1.8-2-3.2-2c-2,0-3.7,1.6-3.7,3.6c0,1.1,0.5,2.1,1.3,2.8c-0.6,0.3-1.1,0.6-1.6,1.1c-1,1-1.5,2.3-1.6,3.7c0,0,0,0,0,0.1
	c0,0,0,0,0,0c0,0,0,0,0,0c0,0,0,0,0.1,0h1c0.1,0,0.1-0.1,0.1-0.1c0-1,0.5-2,1.2-2.8c0.5-0.5,1.2-0.9,1.9-1.1
	C16.3,19.2,16.4,19.1,16.4,19z"/>
</svg>
