<?xml version="1.0" encoding="utf-8"?>
<!-- Generator: Adobe Illustrator 26.0.2, SVG Export Plug-In . SVG Version: 6.00 Build 0)  -->
<svg version="1.1" id="Layer_1" xmlns="http://www.w3.org/2000/svg" xmlns:xlink="http://www.w3.org/1999/xlink" x="0px" y="0px"
	 viewBox="0 0 42 42" style="enable-background:new 0 0 42 42;" xml:space="preserve">
<style type="text/css">
	.st0{fill:#FFFFFF;}
</style>
<path class="st0" d="M12.2,28.2c0,0.6,0.2,1.2,0.7,1.6c0.4,0.4,1,0.7,1.6,0.7c0.6,0,1.2-0.2,1.6-0.7c0.4-0.4,0.7-1,0.7-1.6
	c0-0.6-0.2-1.2-0.7-1.6c-0.4-0.4-1-0.7-1.6-0.7c-0.6,0-1.2,0.2-1.6,0.7C12.4,27,12.2,27.6,12.2,28.2z M41.1,13.7L28.3,0.9
	C27.7,0.3,26.9,0,26.1,0c-0.8,0-1.6,0.3-2.2,0.9l-23,23C0.3,24.5,0,25.3,0,26.1c0,0.8,0.3,1.6,0.9,2.2l12.8,12.8
	c0.6,0.6,1.4,0.9,2.2,0.9s1.6-0.3,2.2-0.9l23-23C42.3,16.9,42.3,14.9,41.1,13.7z M15.9,38.3L3.7,26.1L26.1,3.7l12.1,12.1L15.9,38.3z
	 M4.2,14.5c0,0,0.1,0.1,0.1,0.1c0,0,0.1,0,0.1,0c0,0,0.1,0,0.1,0c0,0,0.1,0,0.1-0.1l9.8-9.8c0,0,0.1-0.1,0.1-0.1c0,0,0-0.1,0-0.1
	c0,0,0-0.1,0-0.1c0,0,0-0.1-0.1-0.1l-1.8-1.8c0,0-0.1-0.1-0.1-0.1c0,0-0.1,0-0.1,0c0,0-0.1,0-0.1,0c0,0-0.1,0-0.1,0.1l-9.8,9.8
	c0,0-0.1,0.1-0.1,0.1c0,0,0,0.1,0,0.1c0,0,0,0.1,0,0.1c0,0,0,0.1,0.1,0.1L4.2,14.5z M37.8,27.5c0,0-0.1-0.1-0.1-0.1c0,0-0.1,0-0.1,0
	c0,0-0.1,0-0.1,0c0,0-0.1,0-0.1,0.1l-9.8,9.8c0,0-0.1,0.1-0.1,0.1c0,0,0,0.1,0,0.1s0,0.1,0,0.1c0,0,0,0.1,0.1,0.1l1.8,1.8
	c0,0,0.1,0.1,0.1,0.1c0,0,0.1,0,0.1,0s0.1,0,0.1,0c0,0,0.1,0,0.1-0.1l9.8-9.8c0,0,0.1-0.1,0.1-0.1c0,0,0-0.1,0-0.1c0,0,0-0.1,0-0.1
	c0,0,0-0.1-0.1-0.1L37.8,27.5z"/>
</svg>
