<?xml version="1.0" encoding="utf-8"?>
<!-- Generator: Adobe Illustrator 26.0.2, SVG Export Plug-In . SVG Version: 6.00 Build 0)  -->
<svg version="1.1" id="Layer_1" xmlns="http://www.w3.org/2000/svg" xmlns:xlink="http://www.w3.org/1999/xlink" x="0px" y="0px"
	 viewBox="0 0 38 38" style="enable-background:new 0 0 38 38;" xml:space="preserve">
<style type="text/css">
	.st0{fill:#FFFFFF;}
</style>
<path class="st0" d="M37.1,18.8h-2.6c-0.2,0-0.4,0.2-0.4,0.4v15H3.4V3.4h15c0.2,0,0.4-0.2,0.4-0.4V0.4c0-0.2-0.2-0.4-0.4-0.4H1.5
	C0.7,0,0,0.7,0,1.5V36c0,0.8,0.7,1.5,1.5,1.5H36c0.8,0,1.5-0.7,1.5-1.5V19.1C37.5,18.9,37.3,18.8,37.1,18.8z"/>
<path class="st0" d="M11.4,19.8l-0.1,5.6c0,0.4,0.3,0.8,0.8,0.8h0l5.5-0.1c0.1,0,0.2,0,0.3-0.1L37.4,6.5c0.1-0.1,0.1-0.4,0-0.5
	l-5.8-5.8C31.5,0,31.4,0,31.3,0c-0.1,0-0.2,0-0.3,0.1L11.5,19.6C11.5,19.6,11.4,19.7,11.4,19.8z M14.4,20.9L31.3,4.1l2.1,2.1
	L16.5,23.1l-2.1,0.1L14.4,20.9z"/>
</svg>
