<?xml version="1.0" encoding="utf-8"?>
<!-- Generator: Adobe Illustrator 26.0.2, SVG Export Plug-In . SVG Version: 6.00 Build 0)  -->
<svg version="1.1" id="Layer_1" xmlns="http://www.w3.org/2000/svg" xmlns:xlink="http://www.w3.org/1999/xlink" x="0px" y="0px"
	 viewBox="0 0 48 48" style="enable-background:new 0 0 48 48;" xml:space="preserve">
<style type="text/css">
	.st0{fill:#FFFFFF;}
</style>
<path class="st0" d="M44.9,39.6l-2.8-10V7.9c0-0.8-0.7-1.5-1.5-1.5h-33C6.7,6.4,6,7,6,7.9v21.8l-2.8,10c-0.4,1,0.4,2,1.4,2h38.8
	C44.5,41.6,45.2,40.6,44.9,39.6z M9.4,9.8h29.2v18.5H9.4V9.8z M20.1,38.2l0.4-1.7h7l0.4,1.7H20.1z M30.6,38.2l-0.9-4.1
	c0-0.2-0.2-0.3-0.4-0.3H18.7c-0.2,0-0.3,0.1-0.4,0.3l-0.9,4.1H7.1l2-7H39l2,7H30.6z"/>
<path class="st0" d="M32.1,22.6h-1.2v-3h-6.2v-2h5.1c0.2,0,0.3-0.2,0.3-0.3v-5.7c0-0.2-0.2-0.3-0.3-0.3H18.2c-0.2,0-0.3,0.2-0.3,0.3
	v5.7c0,0.2,0.2,0.3,0.3,0.3h5.1v2h-6.2v3h-1.2c-0.1,0-0.2,0.1-0.2,0.2v3.8c0,0.1,0.1,0.2,0.2,0.2h3.8c0.1,0,0.2-0.1,0.2-0.2v-3.8
	c0-0.1-0.1-0.2-0.2-0.2h-1.2v-1.5h4.7v1.5H22c-0.1,0-0.2,0.1-0.2,0.2v3.8c0,0.1,0.1,0.2,0.2,0.2h3.8c0.1,0,0.2-0.1,0.2-0.2v-3.8
	c0-0.1-0.1-0.2-0.2-0.2h-1.2v-1.5h4.7v1.5h-1.2c-0.1,0-0.2,0.1-0.2,0.2v3.8c0,0.1,0.1,0.2,0.2,0.2h3.8c0.1,0,0.2-0.1,0.2-0.2v-3.8
	C32.2,22.7,32.2,22.6,32.1,22.6z M18.5,25.3C18.5,25.3,18.5,25.4,18.5,25.3l-1.3,0.1c0,0-0.1,0-0.1-0.1V24c0,0,0-0.1,0.1-0.1h1.3
	c0,0,0.1,0,0.1,0.1v1.3H18.5z M24.7,25.3C24.7,25.3,24.7,25.4,24.7,25.3l-1.3,0.1c0,0-0.1,0-0.1-0.1V24c0,0,0-0.1,0.1-0.1h1.3
	c0,0,0.1,0,0.1,0.1v1.3H24.7z M19.2,16.2v-3.6h9.6v3.6H19.2z M30.9,25.3C30.9,25.3,30.8,25.4,30.9,25.3l-1.3,0.1c0,0-0.1,0-0.1-0.1
	V24c0,0,0-0.1,0.1-0.1h1.3c0,0,0.1,0,0.1,0.1v1.3H30.9z M20.7,14.4c0,0.2,0.1,0.4,0.3,0.6c0.2,0.2,0.4,0.3,0.6,0.3s0.4-0.1,0.6-0.3
	s0.3-0.4,0.3-0.6c0-0.2-0.1-0.4-0.3-0.6c-0.2-0.2-0.4-0.3-0.6-0.3s-0.4,0.1-0.6,0.3C20.8,14,20.7,14.2,20.7,14.4z"/>
</svg>
